<svg xmlns="http://www.w3.org/2000/svg" width="65" height="50" viewBox="0 0 65 50">
  <g id="card-visa" transform="translate(23582 4406)">
    <rect id="Retângulo_307" data-name="Retângulo 307" width="65" height="50" transform="translate(-23582 -4406)" fill="#f7f7f7"/>
    <g id="Grupo_410" data-name="Grupo 410" transform="translate(-23574 -4389)">
      <path id="Shape" d="M27.853,7.89a10.239,10.239,0,0,0-3.627-.636c-4,0-6.819,2.057-6.842,5.008-.023,2.18,2.011,3.4,3.547,4.123,1.576.745,2.106,1.218,2.1,1.882-.011,1.017-1.252,1.481-2.421,1.481a8.333,8.333,0,0,1-3.811-.8l-.521-.241-.567,3.4a12.569,12.569,0,0,0,4.51.811c4.255,0,7.017-2.034,7.048-5.186.017-1.725-1.063-3.04-3.4-4.123-1.415-.7-2.284-1.169-2.275-1.885,0-.63.733-1.307,2.324-1.307a7.305,7.305,0,0,1,3.023.59l.358.178.556-3.3" transform="translate(8.491 -7.254)" fill="#265697"/>
      <path id="Shape-2" d="M23.888,22.529H19.639L25.65,8.613a2,2,0,0,1,2.12-1.252H30.9l3.272,15.163H30.421c0-.02-.372-1.745-.493-2.275H24.753c-.152.4-.825,2.2-.854,2.278h-.011ZM28.06,11.461c-.106.289-.246.659-.358.963v.011c-.129.341-.178.461-.178.47l-.014.043c-.149.4-1.284,3.381-1.6,4.2h3.355c-.16-.751-.928-4.347-.937-4.381Z" transform="translate(15.823 -7.085)" fill="#265697"/>
      <path id="Shape-3" d="M13.41,22.522,15.94,7.345h4.048L17.456,22.522Z" transform="translate(4.204 -7.084)" fill="#265697"/>
      <path id="Shape-4" d="M18.728,7.35,14.765,17.7l-.421-2.1A11.759,11.759,0,0,0,8.737,9.23L12.361,22.5h4.292L23.017,7.35H18.725" transform="translate(-4.51 -7.075)" fill="#265697"/>
      <path id="Shape-5" d="M13.84,7.353H7.314l-.052.315A13.465,13.465,0,0,1,17.1,15.608L15.677,8.631A1.7,1.7,0,0,0,13.84,7.353" transform="translate(-7.262 -7.089)" fill="#d97b16"/>
    </g>
  </g>
</svg>
