<svg xmlns="http://www.w3.org/2000/svg" width="65" height="50" viewBox="0 0 65 50">
  <g id="card-elo" transform="translate(23513 4406)">
    <rect id="Retângulo_308" data-name="Retângulo 308" width="65" height="50" transform="translate(-23513 -4406)" fill="#f7f7f7"/>
    <g id="Grupo_447" data-name="Grupo 447" transform="translate(-23524.6 -4431.5)">
      <g id="Grupo_445" data-name="Grupo 445" transform="translate(19.6 40.5)">
        <g id="Grupo_444" data-name="Grupo 444" transform="translate(0)">
          <path id="Caminho_240" data-name="Caminho 240" d="M45.233,44.734a5.632,5.632,0,0,1,7.315,4.207l3.859-.777A9.573,9.573,0,0,0,47.028,40.5,9.314,9.314,0,0,0,44,40.982Z" transform="translate(-37.462 -40.5)" fill="#ffca05"/>
          <path id="Caminho_241" data-name="Caminho 241" d="M22.815,63.835l2.6-2.947a5.613,5.613,0,0,1-1.9-4.234,5.514,5.514,0,0,1,1.9-4.207L22.789,49.5a9.624,9.624,0,0,0,.027,14.335" transform="translate(-19.6 -47.088)" fill="#00a3df"/>
          <path id="Caminho_242" data-name="Caminho 242" d="M52.474,80.5a5.634,5.634,0,0,1-5.52,4.5,5.73,5.73,0,0,1-1.8-.295L43.9,88.458a9.6,9.6,0,0,0,12.406-7.181Z" transform="translate(-37.389 -69.782)" fill="#ee4023"/>
        </g>
      </g>
      <path id="Caminho_243" data-name="Caminho 243" d="M100.46,68.209a7.073,7.073,0,0,1-.4-.777,5.731,5.731,0,0,1-.134-4.314,5.6,5.6,0,0,1,3.055-3.323,5.881,5.881,0,0,1,5.413.4,5.772,5.772,0,0,1,2.412,2.921c.08.161.134.348.214.509ZM104,62.073a2.9,2.9,0,0,0-1.768,3.081l5.305-2.278A2.814,2.814,0,0,0,104,62.073ZM108.2,67.03h0l-.107-.08a3.156,3.156,0,0,1-1.42,1.206,2.808,2.808,0,0,1-3.081-.322l-.08.107h0l-1.34,2.01a5.2,5.2,0,0,0,1.072.589,5.6,5.6,0,0,0,4.5-.054,5.714,5.714,0,0,0,2.519-2.09Z" transform="translate(-58.54 -13.776)" fill="#231f20"/>
      <path id="Caminho_244" data-name="Caminho 244" d="M149.192,50V61.2l1.742.7-.991,2.3-1.929-.8a2.149,2.149,0,0,1-.938-.8A2.467,2.467,0,0,1,146.7,61.2V50Z" transform="translate(-93.043 -6.954)" fill="#231f20"/>
      <g id="Grupo_446" data-name="Grupo 446" transform="translate(57.998 45.538)">
        <path id="Caminho_245" data-name="Caminho 245" d="M165.58,69.168a3.145,3.145,0,0,1,1.1-2.385l-1.8-1.983a5.828,5.828,0,0,0-.027,8.735l1.8-1.983A3.081,3.081,0,0,1,165.58,69.168Z" transform="translate(-162.9 -63.326)" fill="#231f20"/>
        <path id="Caminho_246" data-name="Caminho 246" d="M179.576,86.119a3.239,3.239,0,0,1-1.018-.161L177.7,88.5a6.069,6.069,0,0,0,1.849.295,5.864,5.864,0,0,0,5.734-4.662l-2.626-.536A3.139,3.139,0,0,1,179.576,86.119Z" transform="translate(-173.734 -77.089)" fill="#231f20"/>
        <path id="Caminho_247" data-name="Caminho 247" d="M179.649,59.3a6.069,6.069,0,0,0-1.849.295l.857,2.546a3.12,3.12,0,0,1,1.018-.161,3.187,3.187,0,0,1,3.108,2.546l2.626-.536A5.89,5.89,0,0,0,179.649,59.3Z" transform="translate(-173.808 -59.3)" fill="#231f20"/>
      </g>
    </g>
  </g>
</svg>
