<svg xmlns="http://www.w3.org/2000/svg" width="65" height="50" viewBox="0 0 65 50">
  <g id="card-mastercard" transform="translate(23660 4406)">
    <rect id="Ret창ngulo_306" data-name="Ret창ngulo 306" width="65" height="50" transform="translate(-23660 -4406)" fill="#f7f7f7"/>
    <g id="Grupo_437" data-name="Grupo 437" transform="translate(-23686.801 -4413.7)">
      <path id="Caminho_210" data-name="Caminho 210" d="M52.733,120.4V118.35a1.2,1.2,0,0,0-1.3-1.3,1.371,1.371,0,0,0-1.169.584,1.207,1.207,0,0,0-1.089-.584,1.1,1.1,0,0,0-.956.478v-.4H47.5v3.294h.717v-1.806a.743.743,0,0,1,.8-.85c.478,0,.717.319.717.85v1.806h.717v-1.806a.755.755,0,0,1,.8-.85c.478,0,.717.319.717.85v1.806h.77ZM63.386,117.1H62.217v-.983H61.5v.983h-.664v.664H61.5v1.514c0,.744.319,1.2,1.142,1.2a1.981,1.981,0,0,0,.9-.239l-.213-.611a1.165,1.165,0,0,1-.611.159c-.345,0-.478-.213-.478-.558v-1.488h1.169V117.1Zm6.11-.08a.972.972,0,0,0-.85.478v-.4h-.717V120.4h.717v-1.86c0-.558.239-.85.691-.85a1.349,1.349,0,0,1,.452.08l.213-.691a1.721,1.721,0,0,0-.5-.053Zm-9.218.345a2.358,2.358,0,0,0-1.328-.345c-.824,0-1.381.4-1.381,1.063,0,.558.4.85,1.142.956l.345.027c.372.08.584.159.584.345,0,.239-.266.4-.744.4a1.77,1.77,0,0,1-1.089-.345l-.345.558a2.5,2.5,0,0,0,1.408.4c.956,0,1.514-.452,1.514-1.063,0-.584-.452-.9-1.142-.983l-.345-.027c-.319-.027-.558-.106-.558-.319,0-.239.239-.372.611-.372a2.556,2.556,0,0,1,1.036.266l.292-.558Zm19.127-.345a.972.972,0,0,0-.85.478v-.4h-.717V120.4h.717v-1.86c0-.558.239-.85.691-.85a1.35,1.35,0,0,1,.452.08l.213-.691a1.721,1.721,0,0,0-.5-.053Zm-9.192,1.727a1.667,1.667,0,0,0,1.753,1.727,1.763,1.763,0,0,0,1.169-.372l-.345-.584a1.356,1.356,0,0,1-.85.319.957.957,0,0,1-.983-1.063,1,1,0,0,1,.983-1.063,1.3,1.3,0,0,1,.85.319l.345-.584a1.763,1.763,0,0,0-1.169-.372,1.585,1.585,0,0,0-1.753,1.674Zm6.641,0V117.1h-.717v.4a1.216,1.216,0,0,0-1.036-.478,1.729,1.729,0,0,0,0,3.453A1.153,1.153,0,0,0,76.137,120v.4h.717Zm-2.63,0a.986.986,0,1,1,1.966,0,.986.986,0,1,1-1.966,0Zm-8.607-1.727a1.728,1.728,0,0,0,.027,3.453,2.016,2.016,0,0,0,1.328-.452l-.345-.5a1.561,1.561,0,0,1-.956.345.9.9,0,0,1-.983-.8h2.444V118.8a1.534,1.534,0,0,0-1.514-1.78Zm0,.638c.452,0,.744.266.824.8H64.714a.876.876,0,0,1,.9-.8ZM83.5,118.749V115.8h-.717v1.727a1.216,1.216,0,0,0-1.036-.478,1.729,1.729,0,0,0,0,3.453,1.153,1.153,0,0,0,1.036-.478v.4H83.5Zm-2.657,0a.986.986,0,1,1,1.966,0,.986.986,0,1,1-1.966,0Zm-24.068,0V117.1h-.717v.4a1.216,1.216,0,0,0-1.036-.478,1.729,1.729,0,0,0,0,3.453A1.153,1.153,0,0,0,56.054,120v.4h.717Zm-2.683,0a.986.986,0,1,1,1.966,0,1,1,0,0,1-.983,1.063A1.016,1.016,0,0,1,54.088,118.749Z" transform="translate(-5.654 -72.774)"/>
      <rect id="Ret창ngulo_251" data-name="Ret창ngulo 251" width="10.812" height="19.419" transform="translate(54.384 19.33)" fill="#ff5f00"/>
      <path id="Caminho_211" data-name="Caminho 211" d="M55.075,29.026a12.386,12.386,0,0,1,4.7-9.7,12.353,12.353,0,1,0,0,19.446A12.372,12.372,0,0,1,55.075,29.026Z" fill="#eb001b"/>
      <path id="Caminho_212" data-name="Caminho 212" d="M134.977,29.1A12.356,12.356,0,0,1,115,38.822a12.349,12.349,0,0,0,0-19.392,12.356,12.356,0,0,1,19.977,9.67Z" transform="translate(-55.223 -0.073)" fill="#f79e1b"/>
    </g>
  </g>
</svg>
