<svg id="logo" xmlns="http://www.w3.org/2000/svg" width="20" height="5.073" viewBox="0 0 20 5.073">
  <g id="Group">
    <path id="Path" d="M19.9,5.073H2.567A2.55,2.55,0,0,1,0,2.547V2.526A2.55,2.55,0,0,1,2.567,0H17.433A2.554,2.554,0,0,1,20,2.526V4.982a.1.1,0,0,1-.1.091" fill="#00ff83" fill-rule="evenodd"/>
    <path id="Shape" d="M111.109,122.888a1.59,1.59,0,0,1-.428-.058,1.093,1.093,0,0,1-.344-.183.788.788,0,0,1-.229-.307,1.1,1.1,0,0,1-.084-.438,1.026,1.026,0,0,1,.084-.423.863.863,0,0,1,.222-.292.987.987,0,0,1,.313-.168,1.186,1.186,0,0,1,.359-.051,1.215,1.215,0,0,1,.374.058.84.84,0,0,1,.29.161.757.757,0,0,1,.191.248.727.727,0,0,1,.069.314.247.247,0,0,1-.076.2.379.379,0,0,1-.206.088l-.963.139a.3.3,0,0,0,.176.183.69.69,0,0,0,.306.058,1.4,1.4,0,0,0,.306-.037.955.955,0,0,0,.229-.095.349.349,0,0,1,.107.1.25.25,0,0,1,.046.139.262.262,0,0,1-.16.248.848.848,0,0,1-.283.088,1.473,1.473,0,0,1-.3.029m-.107-1.46a.369.369,0,0,0-.16.029.43.43,0,0,0-.115.073.206.206,0,0,0-.061.1.318.318,0,0,0-.023.117l.665-.1a.263.263,0,0,0-.084-.146.3.3,0,0,0-.222-.073" transform="translate(-108.425 -119.21)" fill="#292a35"/>
    <path id="Path-2" data-name="Path" d="M250.688,121.005a.69.69,0,0,1,.106-.022.966.966,0,0,1,.152-.015.725.725,0,0,1,.132.015.211.211,0,0,1,.1.045.19.19,0,0,1,.059.1.485.485,0,0,1,.02.156v.819a.3.3,0,0,0,.066.223.274.274,0,0,0,.2.067.543.543,0,0,0,.126-.015.267.267,0,0,0,.073-.03v-1.339a.691.691,0,0,1,.106-.022.966.966,0,0,1,.152-.015.725.725,0,0,1,.132.015.211.211,0,0,1,.1.045.191.191,0,0,1,.059.1.485.485,0,0,1,.02.156v1.153a.314.314,0,0,1-.139.283.8.8,0,0,1-.284.127,1.219,1.219,0,0,1-.344.045,1.239,1.239,0,0,1-.337-.045.628.628,0,0,1-.264-.141.687.687,0,0,1-.172-.246.985.985,0,0,1-.059-.365Z" transform="translate(-247.044 -119.21)" fill="#292a35" fill-rule="evenodd"/>
    <path id="Path-3" data-name="Path" d="M393.422,100.269a.155.155,0,0,0,.063.135.364.364,0,0,0,.189.043.8.8,0,0,0,.126-.007c.039-.007.079-.014.11-.021a.4.4,0,0,1,.063.092.28.28,0,0,1,.024.121.27.27,0,0,1-.118.227.709.709,0,0,1-.4.085.908.908,0,0,1-.543-.142.561.561,0,0,1-.189-.469V98.757c.031-.007.071-.014.126-.021a1.3,1.3,0,0,1,.173-.014.575.575,0,0,1,.276.057.25.25,0,0,1,.1.234v.234h.527a.656.656,0,0,1,.047.1.377.377,0,0,1,.024.135.244.244,0,0,1-.063.185.271.271,0,0,1-.165.057h-.37Z" transform="translate(-387.036 -97.286)" fill="#292a35" fill-rule="evenodd"/>
    <path id="Shape-2" data-name="Shape" d="M491.628,86.242a.91.91,0,0,1,.118-.021,1.411,1.411,0,0,1,.17-.014.972.972,0,0,1,.147.014.26.26,0,0,1,.111.041.175.175,0,0,1,.066.089.377.377,0,0,1,.022.144v.344a1.188,1.188,0,0,1,.177-.048,1.539,1.539,0,0,1,.184-.014.994.994,0,0,1,.347.062.847.847,0,0,1,.288.172.911.911,0,0,1,.2.282,1.042,1.042,0,0,1,.074.392.969.969,0,0,1-.074.4.762.762,0,0,1-.207.282.887.887,0,0,1-.325.172,1.346,1.346,0,0,1-.42.055,1.467,1.467,0,0,1-.42-.055,1.034,1.034,0,0,1-.3-.137.324.324,0,0,1-.162-.282Zm.878,1.876a.339.339,0,0,0,.273-.11.615.615,0,0,0,0-.66.333.333,0,0,0-.266-.11.708.708,0,0,0-.133.014.494.494,0,0,0-.118.041v.763a.745.745,0,0,0,.1.041A.4.4,0,0,0,492.506,88.118Z" transform="translate(-484.482 -84.954)" fill="#292a35"/>
    <path id="Shape-3" data-name="Shape" d="M636.162,122.888a1.59,1.59,0,0,1-.428-.058,1.094,1.094,0,0,1-.344-.183.787.787,0,0,1-.229-.307,1.1,1.1,0,0,1-.084-.438,1.026,1.026,0,0,1,.084-.423.862.862,0,0,1,.222-.292.987.987,0,0,1,.313-.168,1.186,1.186,0,0,1,.359-.051,1.216,1.216,0,0,1,.374.058.84.84,0,0,1,.29.161.757.757,0,0,1,.191.248.728.728,0,0,1,.069.314.248.248,0,0,1-.076.2.406.406,0,0,1-.206.088l-.963.139a.3.3,0,0,0,.176.183.69.69,0,0,0,.306.058,1.4,1.4,0,0,0,.306-.037.956.956,0,0,0,.229-.095.348.348,0,0,1,.107.1.25.25,0,0,1,.046.139.262.262,0,0,1-.161.248.848.848,0,0,1-.283.088,1.473,1.473,0,0,1-.3.029m-.107-1.46a.369.369,0,0,0-.16.029.43.43,0,0,0-.115.073.206.206,0,0,0-.061.1.318.318,0,0,0-.023.117l.665-.1a.264.264,0,0,0-.084-.146.3.3,0,0,0-.222-.073" transform="translate(-625.846 -119.21)" fill="#292a35"/>
    <path id="Path-4" data-name="Path" d="M787.726,120.968a.971.971,0,0,1,.293.044.746.746,0,0,1,.25.133,1.27,1.27,0,0,1,.243-.126,1.064,1.064,0,0,1,.329-.052,1.1,1.1,0,0,1,.271.037.65.65,0,0,1,.236.118.546.546,0,0,1,.164.214.75.75,0,0,1,.064.325v1.189a.8.8,0,0,1-.114.022,1.135,1.135,0,0,1-.164.015.778.778,0,0,1-.143-.015.237.237,0,0,1-.107-.044.188.188,0,0,1-.064-.1.445.445,0,0,1-.021-.155v-.894a.19.19,0,0,0-.064-.162.252.252,0,0,0-.171-.052.279.279,0,0,0-.107.022.3.3,0,0,0-.086.052v1.307a.962.962,0,0,1-.121.022,1.13,1.13,0,0,1-.157.015.852.852,0,0,1-.143-.015.237.237,0,0,1-.107-.044.188.188,0,0,1-.064-.1.445.445,0,0,1-.021-.155v-.894a.19.19,0,0,0-.064-.162.245.245,0,0,0-.164-.052.288.288,0,0,0-.114.022.688.688,0,0,1-.079.037v1.322a.8.8,0,0,1-.114.022,1.135,1.135,0,0,1-.164.015.778.778,0,0,1-.143-.015.237.237,0,0,1-.107-.044.187.187,0,0,1-.064-.1.445.445,0,0,1-.021-.155v-1.13a.272.272,0,0,1,.043-.162.419.419,0,0,1,.114-.111,1.1,1.1,0,0,1,.307-.148,1.236,1.236,0,0,1,.378-.059" transform="translate(-775.446 -119.21)" fill="#292a35" fill-rule="evenodd"/>
    <path id="Shape-4" data-name="Shape" d="M1026.972,134.165a.33.33,0,0,1-.288.15.353.353,0,0,1-.254-.093,3.654,3.654,0,0,0,.127-.465c.034-.157.06-.3.087-.436a.655.655,0,0,1,.141-.057.632.632,0,0,1,.167-.021.322.322,0,0,1,.187.05.2.2,0,0,1,.08.186.851.851,0,0,1-.02.172c-.013.064-.033.122-.053.186a1.4,1.4,0,0,1-.073.179,1.228,1.228,0,0,0-.1.15m-.428-1.716a.384.384,0,0,1,.087-.257.294.294,0,0,1,.241-.1.317.317,0,0,1,.241.1.372.372,0,0,1,.087.257.384.384,0,0,1-.087.257.294.294,0,0,1-.241.1.317.317,0,0,1-.241-.1.393.393,0,0,1-.087-.257" transform="translate(-1011.511 -130.172)" fill="#292a35"/>
    <path id="Path-5" data-name="Path" d="M1115.623,164.537a.752.752,0,0,1-.044-.1.451.451,0,0,1-.019-.128.238.238,0,0,1,.056-.182.172.172,0,0,1,.137-.054h.681a.821.821,0,0,1,.037.1.451.451,0,0,1,.019.128.238.238,0,0,1-.056.182.172.172,0,0,1-.137.054Z" transform="translate(-1099.346 -161.687)" fill="#292a35" fill-rule="evenodd"/>
    <path id="Path-6" data-name="Path" d="M1180.561,90.413a2.972,2.972,0,0,1-.063.65,1.763,1.763,0,0,1-.168.47.719.719,0,0,1-.168.214.335.335,0,0,1-.245.09.327.327,0,0,1-.175-.055.416.416,0,0,1-.112-.111c.056-.083.1-.173.154-.263a1.79,1.79,0,0,0,.112-.29c.028-.1.049-.207.07-.325a3.477,3.477,0,0,0,0-.761,1.576,1.576,0,0,0-.07-.325,1.791,1.791,0,0,0-.112-.29,2,2,0,0,0-.154-.263.421.421,0,0,1,.112-.111.293.293,0,0,1,.175-.055.335.335,0,0,1,.245.09,1.05,1.05,0,0,1,.168.214,1.763,1.763,0,0,1,.168.47,2.972,2.972,0,0,1,.063.65" transform="translate(-1162.484 -87.695)" fill="#292a35" fill-rule="evenodd"/>
  </g>
</svg>
