<svg xmlns="http://www.w3.org/2000/svg" width="48" height="48" viewBox="0 0 48 48">
  <g id="favicon" transform="translate(-488 -892)">
    <rect id="Ret창ngulo_1" data-name="Ret창ngulo 1" width="48" height="48" transform="translate(488 892)" fill="none"/>
    <path id="Path" d="M93.7,29.851H63.789A15,15,0,0,1,48.683,14.988v-.125A15,15,0,0,1,63.789,0H79.18A15.029,15.029,0,0,1,94.285,14.863V29.316a.588.588,0,0,1-.588.535" transform="translate(440.517 901.12)" fill="#00ff83" fill-rule="evenodd"/>
    <path id="Uni찾o_1" data-name="Uni찾o 1" d="M0,16.228a21.489,21.489,0,0,0,.746-2.738c.2-.924.353-1.766.511-2.566a3.881,3.881,0,0,1,.83-.336,3.72,3.72,0,0,1,.984-.122,1.9,1.9,0,0,1,1.1.3,1.178,1.178,0,0,1,.48,1.094,4.98,4.98,0,0,1-.118,1.013,10.521,10.521,0,0,1-.312,1.094,8.2,8.2,0,0,1-.43,1.054,7.265,7.265,0,0,0-.59.883h0a1.942,1.942,0,0,1-1.694.883h-.1A2.078,2.078,0,0,1,0,16.228Zm14.8.54a1.92,1.92,0,0,1-1.03-.324,2.446,2.446,0,0,1-.66-.653c.331-.48.588-1.018.907-1.548a10.445,10.445,0,0,0,.66-1.706c.163-.588.288-1.219.41-1.92a20.51,20.51,0,0,0,0-4.478,9.293,9.293,0,0,0-.413-1.92,10.4,10.4,0,0,0-.658-1.706,11.859,11.859,0,0,0-.9-1.531,2.453,2.453,0,0,1,.658-.653A1.728,1.728,0,0,1,14.8,0a1.973,1.973,0,0,1,1.44.53,6.182,6.182,0,0,1,.989,1.26,10.361,10.361,0,0,1,.991,2.77,17.429,17.429,0,0,1,.37,3.826h0a17.472,17.472,0,0,1-.37,3.826,10.368,10.368,0,0,1-.989,2.765,4.236,4.236,0,0,1-.989,1.26,1.97,1.97,0,0,1-1.346.533Zm-2.846-7.6H7.985a4.392,4.392,0,0,1-.259-.588,2.64,2.64,0,0,1-.113-.754,1.4,1.4,0,0,1,.331-1.07,1.01,1.01,0,0,1,.806-.319h4.008a4.627,4.627,0,0,1,.218.588,2.64,2.64,0,0,1,.113.754,1.4,1.4,0,0,1-.329,1.07,1.008,1.008,0,0,1-.737.319ZM2.606,7.9A1.865,1.865,0,0,1,1.2,7.312,2.311,2.311,0,0,1,.689,5.8,2.266,2.266,0,0,1,1.2,4.288,1.73,1.73,0,0,1,2.618,3.7a1.865,1.865,0,0,1,1.418.588A2.189,2.189,0,0,1,4.548,5.8a2.256,2.256,0,0,1-.511,1.512,1.73,1.73,0,0,1-1.3.593Z" transform="translate(502.633 907.604)" fill="#292a35"/>
  </g>
</svg>
